<svg width="325" height="81" viewBox="0 0 325 81" fill="none" xmlns="http://www.w3.org/2000/svg">
<path d="M147.873 79.514V76.4769C146.846 76.2759 146.008 75.9409 145.361 75.5054C144.713 75.0699 144.211 74.4334 143.842 73.596C143.474 72.7697 143.217 71.8987 143.072 70.9943C142.915 70.0898 142.848 68.9844 142.848 67.6891L142.915 15.5768L172.874 57.5837C174.616 60.018 175.788 61.9385 176.391 63.3455C177.307 65.3665 177.754 67.5216 177.754 69.7995C177.754 73.2275 176.693 75.3491 174.56 76.1754C173.991 76.3875 173.432 76.488 172.863 76.488V79.5252H192.571V76.488C191.656 76.3875 190.818 76.086 190.059 75.5947C189.299 75.1034 188.708 74.4446 188.294 73.6071C187.881 72.7808 187.613 71.8094 187.479 70.6928C187.345 69.5762 187.278 68.6047 187.278 67.7784V15.9564C187.278 14.5048 187.379 12.908 187.569 11.1773C187.77 9.43538 188.25 7.97262 189.043 6.77785C189.69 5.79523 190.416 5.16993 191.198 4.9131C191.723 4.81261 192.236 4.70095 192.761 4.60045V1.56325H173.053V4.60045C174.113 4.75678 174.996 5.02477 175.721 5.41558C176.447 5.8064 177.073 6.4317 177.597 7.28032C178.122 8.14012 178.457 8.9329 178.591 9.6587C178.725 10.3845 178.792 11.4453 178.792 12.8522C178.792 13.0644 178.792 13.377 178.792 13.7902V31.388L165.672 11.7579C165.236 11.088 164.935 10.5408 164.756 10.1165C164.365 9.23439 164.164 8.43044 164.164 7.70464C164.164 7.191 164.321 6.67736 164.622 6.18605C164.924 5.69474 165.248 5.30391 165.571 5.01359C165.895 4.72327 166.275 4.58927 166.71 4.58927V1.55209H129.382V4.58927C130.99 4.84609 132.252 5.57191 133.167 6.76669C133.603 7.33616 133.904 8.3746 134.083 9.88203C134.262 11.3895 134.34 12.9639 134.34 14.6276C134.34 15.2976 134.34 15.9564 134.34 16.5705V64.2611C134.34 66.9075 134.139 69.2747 133.748 71.3739C133.368 73.3838 132.754 74.7349 131.906 75.4384C131.727 75.3156 131.548 75.1927 131.37 75.0364C130.845 74.6009 130.309 73.8305 129.739 72.7362C129.561 72.3789 129.326 71.8764 129.025 71.2623L112.052 10.4962C111.795 9.55822 111.639 9.04457 111.594 8.94408C111.46 8.43044 111.393 7.96146 111.393 7.54831C111.393 7.13517 111.483 6.72202 111.65 6.30887C112.041 5.42675 112.756 4.99127 113.805 4.99127V1.56325H84.8961V4.52229C85.1976 4.62279 85.4991 4.75678 85.7782 4.9131C86.0574 5.06943 86.3477 5.39325 86.6269 5.88456C86.906 6.37587 87.0512 6.99 87.0512 7.7158C87.0512 8.24061 86.9618 8.81008 86.7943 9.42421C86.6157 10.0495 86.4259 10.6748 86.2025 11.289L68.1246 66.6618C67.5998 68.3702 67.0526 69.7102 66.4943 70.6705C66.3603 70.8938 66.2152 71.1283 66.0477 71.3516C65.5787 70.2238 65.0762 68.9174 64.5514 67.3653C62.2065 60.4199 60.5316 55.9311 59.5267 53.9101C57.6507 50.1806 55.8642 46.8196 54.1446 43.8382C52.425 40.8569 50.4151 37.6299 48.1037 34.146C48.4499 34.146 49.7116 33.3979 51.889 31.8905C54.7587 29.8694 57.0924 27.6585 58.8679 25.2801C61.3467 21.908 62.5862 18.3013 62.5862 14.4601C62.5862 14.047 62.5415 13.377 62.4522 12.4391C62.0614 8.91058 60.5316 6.21954 57.8517 4.34363C55.1719 2.47888 51.2972 1.54093 46.2055 1.54093H0.524818V4.57811C1.44044 4.57811 2.22207 4.76794 2.86971 5.15875C3.51734 5.54957 4.09798 6.26419 4.60045 7.30264C5.10293 8.34109 5.43791 10.2282 5.61657 12.9862C5.66123 13.8683 5.68357 15.1078 5.68357 16.7157L5.54958 67.6779C5.54958 69.4422 5.41558 70.8714 5.15876 71.9546C4.90194 73.0488 4.33246 74.0091 3.46151 74.8354C2.81387 75.4607 2.25556 75.885 1.79775 76.1195C1.33994 76.354 0.736965 76.4657 0 76.4657V79.5029H31.1312V76.4657C29.9141 76.153 29.1548 75.9185 28.8421 75.7622C28.1833 75.4049 27.5134 74.7014 26.8211 73.663C26.2962 72.8813 25.9389 71.9657 25.7491 70.8938C25.5481 69.833 25.4588 68.4707 25.4588 66.807V44.8432L28.9203 42.9003C30.2267 45.033 31.5443 47.1881 32.8731 49.3655C34.2019 51.5429 35.2961 53.5416 36.1671 55.3617C39.1261 61.6929 40.935 65.7239 41.5827 67.4323C42.543 69.9781 43.0231 71.9434 43.0231 73.3503C43.0231 74.3888 42.7663 75.0922 42.2415 75.4496C41.2812 76.1195 40.2204 76.5438 39.048 76.7002V79.5029H60.0515H71.9434H81.7138V76.622C80.8875 76.4657 80.1505 76.1642 79.4917 75.7287C78.8441 75.2932 78.2523 74.6009 77.7275 73.663C77.5041 73.2498 77.4036 72.4905 77.4036 71.4074C77.4036 69.1742 77.6828 67.1308 78.2523 65.2549L82.8527 49.4325C84.3378 49.4325 86.2137 49.6781 88.5028 50.1694C90.7918 50.6607 92.5226 51.219 93.695 51.8444C96.6987 53.4523 99.4232 55.8865 101.857 59.147C104.124 62.1507 105.408 64.8752 105.71 67.3094C105.799 67.8231 105.844 68.5489 105.844 69.4868C105.844 72.2895 104.973 74.3106 103.231 75.5501C102.661 75.9074 101.813 76.22 100.685 76.488V79.514H128.846H134.485H147.873ZM36.7142 29.1994C34.1907 31.8011 31.2763 33.7664 27.9712 35.1175L25.6821 35.9773V16.4254C25.6821 15.1301 25.8496 14.0023 26.1734 13.042C26.4972 12.0817 27.0779 11.3895 27.9042 10.9763C29.3781 10.2505 30.9749 9.88203 32.6721 9.88203C35.151 9.88203 37.1944 10.552 38.8023 11.9031C40.6671 13.4552 41.605 15.5879 41.605 18.2901C41.6162 22.1871 39.9859 25.8273 36.7142 29.1994ZM96.5535 42.8445C94.7781 41.7502 93.1255 40.9462 91.6069 40.4326C90.0883 39.9189 88.9382 39.6286 88.1566 39.5728C87.375 39.517 86.7273 39.4946 86.2025 39.4946L92.4333 17.609L99.7359 45.1894C98.9208 44.4524 97.86 43.6707 96.5535 42.8445ZM311.557 79.6704C312.473 79.7709 313.299 79.9607 314.036 80.2175L316.258 80.9991L324.745 51.1744L322.523 49.8456C321.786 53.2736 320.044 56.8245 317.297 60.5204C314.863 63.8479 312.317 66.4162 309.659 68.2251C307.873 69.4199 305.907 70.3801 303.752 71.1059C301.597 71.8317 299.498 72.2002 297.455 72.2002C295.579 72.2002 293.926 71.8764 292.497 71.2288C291.068 70.5811 289.951 69.6097 289.169 68.3032C288.388 67.008 287.885 65.7574 287.673 64.5626C287.461 63.3678 287.349 61.9162 287.349 60.1966C287.349 59.884 287.349 59.4708 287.349 58.946C287.349 58.4324 287.349 57.8071 287.349 57.0813V34.8048H295.702C296.662 34.8048 297.834 35.151 299.219 35.8545C300.615 36.5579 301.854 37.4735 302.937 38.6236C304.02 39.7626 305.003 41.3259 305.874 43.3023C306.566 44.9102 307.002 46.2389 307.18 47.2774L309.659 46.7973L305.282 17.1289L303.328 17.8323C303.328 18.0891 303.328 18.4799 303.328 19.0048C303.328 21.238 302.591 23.1362 301.117 24.6883C300.38 25.4141 299.61 25.9278 298.806 26.2069C298.002 26.4972 297.164 26.6312 296.305 26.6312H287.137V18.145C287.137 16.537 287.316 15.1301 287.695 13.9353C288.064 12.7405 288.712 11.7244 289.616 10.8981C291.012 9.64754 293.167 9.0334 296.081 9.0334C298.694 9.0334 301.34 9.54704 304.043 10.5855C306.745 11.6239 309.067 13.1537 311.021 15.1859C314.416 18.7703 316.616 23.1251 317.609 28.2726L319.765 26.3297L314.997 0C314.26 0.34615 313.668 0.569467 313.232 0.669962C313.143 0.669962 312.562 0.770468 311.468 0.960292C309.38 1.36227 307.526 1.55209 305.919 1.55209C305.349 1.55209 304.958 1.55209 304.746 1.55209H261.678V4.58927C262.639 4.58927 263.376 4.6786 263.9 4.85726C264.425 5.03592 264.95 5.48258 265.464 6.18605C265.988 6.88951 266.301 7.59298 266.413 8.28528C266.524 8.98874 266.58 10.016 266.58 11.3671C266.58 11.5234 266.58 11.8026 266.58 12.2269V67.5216C266.58 69.1295 266.48 70.4471 266.29 71.4521C266.1 72.4682 265.642 73.462 264.95 74.4558C264.425 75.1257 263.979 75.5836 263.61 75.8181C263.242 76.0525 262.404 76.2982 261.098 76.555V79.514H308.677C309.682 79.514 310.642 79.5587 311.557 79.6704Z" fill="#E92A2D"/>
</svg>
