<svg width="536" height="193" viewBox="0 0 536 193" fill="none" xmlns="http://www.w3.org/2000/svg">
<path d="M382.407 186.084C381.971 185.146 381.703 184.241 381.625 183.359C381.625 182.376 381.625 181.394 381.625 180.4V157.23C381.625 155.622 381.725 154.305 381.915 153.266C382.116 152.228 382.552 151.268 383.255 150.385C384.562 148.621 386.103 147.739 387.889 147.739V145.093H356.624V147.974C356.836 147.974 357.193 147.974 357.662 147.974C358.924 147.974 360.052 148.543 361.057 149.682C361.582 150.307 361.939 150.955 362.14 151.625C362.341 152.295 362.43 153.512 362.43 155.276V173.846C362.43 176.905 361.861 179.339 360.733 181.148C359.382 183.27 357.294 184.331 354.469 184.331C348.115 184.331 342.979 180.545 339.071 172.963C335.721 166.521 334.046 159.385 334.046 151.547C334.046 150.921 334.057 150.408 334.08 149.995C334.102 149.581 334.135 149.135 334.18 148.666C334.783 141.028 336.469 134.798 339.205 129.974C342.51 124.156 347.01 121.253 352.716 121.253C356.367 121.253 360.521 122.526 365.177 125.083C367.042 126.121 368.918 127.975 370.794 130.633C373.228 134.072 374.814 137.042 375.562 139.543L377.192 138.527L374.523 111.739C373.742 112.465 372.982 113.191 372.234 113.917C371.274 114.542 370.034 114.855 368.516 114.855C367.165 114.855 365.691 114.643 364.083 114.23C360.956 113.448 358.165 112.89 355.731 112.555C353.296 112.22 350.684 112.052 347.903 112.052C342.767 112.052 338.055 112.823 333.745 114.352C329.434 115.882 325.649 118.316 322.389 121.633C319.954 124.167 317.978 127.004 316.437 130.141V169.502C317.509 172.014 318.771 174.381 320.234 176.615C324.231 182.689 329.133 186.899 334.917 189.232C339.573 191.097 345.815 192.035 353.643 192.035H386.27V189.076C385.232 188.763 384.428 188.417 383.892 188.027C383.322 187.68 382.831 187.022 382.407 186.084ZM0 131.504H78.1629V138.616H0V131.504ZM446.645 131.504H535.974V138.616H446.645V131.504ZM0 0H524.585V6.44285H0V0Z" fill="#E92A2D"/>
</svg>
