<svg width="62" height="80" viewBox="0 0 62 80" fill="none" xmlns="http://www.w3.org/2000/svg">
<path d="M55.6632 19.1723C57.4944 21.774 58.7785 24.6213 59.5155 27.7367L61.4696 27.0332L57.0924 0.0111813C56.2215 0.658817 55.317 1.13895 54.3791 1.46277C53.4411 1.78659 52.7153 1.96525 52.1905 1.98759C51.6657 2.02109 51.0851 2.03225 50.4263 2.03225H11.289C11.155 2.03225 10.5297 2.03225 9.39072 2.03225C9.30139 2.03225 8.94407 2.00992 8.31877 1.95409C7.6823 1.89826 7.20215 1.79776 6.856 1.64144C5.98504 1.17246 5.27041 0.625303 4.70094 0L0 27.022L1.95407 27.491C2.34488 25.7268 3.19351 23.5941 4.49995 21.104C5.58306 19.0271 6.67734 17.4415 7.76046 16.3472C9.93785 14.2703 11.9589 12.8076 13.8348 11.9478C15.6996 11.088 17.944 10.6637 20.5569 10.6637V66.2152C20.5569 68.4372 20.4675 70.101 20.3 71.1841C20.1214 72.2672 19.5854 73.3391 18.6698 74.3664C17.1512 76.0749 15.5433 76.9347 13.846 76.9347C13.4552 76.9347 13.1537 76.957 12.9304 77.0128V79.9718H48.6955V76.9347C47.2997 76.9347 46.1496 76.7448 45.234 76.354C44.3072 75.9967 43.4698 75.2262 42.7105 74.0873C41.9512 72.9483 41.4487 71.6531 41.2142 70.2015C40.9685 68.7499 40.8569 67.1196 40.8569 65.2996C40.8569 64.8864 40.8569 64.3728 40.8569 63.7475L40.7899 10.6972C43.9164 10.6972 46.6744 11.3895 49.0416 12.7629C51.4089 14.1252 53.6198 16.2691 55.6632 19.1723Z" fill="#E92A2D"/>
</svg>
