<svg width="303" height="81" viewBox="0 0 303 81" fill="none" xmlns="http://www.w3.org/2000/svg">
<path d="M39.5728 5.31508C40.3544 5.4714 40.9462 5.59423 41.3482 5.69473C42.4425 6.05205 43.1794 6.53219 43.5814 7.13516C44.1509 8.05078 44.5529 9.03341 44.7985 10.1054C45.033 11.1661 45.1558 13.0755 45.1558 15.8112V22.8124H25.5593V15.5879C25.5593 12.0929 26.2404 9.30139 27.5915 7.21332C28.0717 6.49869 28.7305 6.00738 29.5568 5.72823C30.383 5.44908 31.0642 5.30392 31.589 5.30392V2.33372H0V5.30392C1.00495 5.46024 1.83125 5.69474 2.49005 6.02972C3.14886 6.36471 3.74066 6.94534 4.2543 7.7828C4.77911 8.62026 5.10293 9.44656 5.23693 10.2505C5.37092 11.0657 5.43791 12.3051 5.43791 13.98C5.43791 14.181 5.43791 14.5383 5.43791 15.0408L5.57191 64.8082C5.57191 66.4832 5.34858 68.2474 4.9131 70.0898C4.47762 71.9434 4.04214 73.0935 3.60666 73.5513C2.78037 74.3665 2.19974 74.8578 1.86475 75.0364C1.54093 75.2151 0.937961 75.4049 0.0670026 75.6059V78.4979H31.3992V75.5277C29.6014 75.5277 28.1163 74.7461 26.9439 73.1717C26.3297 72.3119 25.9501 71.4744 25.7938 70.6705C25.6374 69.8553 25.5593 68.7499 25.5593 67.3318V30.5617H45.0219V67.477C45.0219 68.6941 44.9213 69.766 44.7315 70.704C44.5305 71.6419 44.1732 72.4905 43.6484 73.2498C42.5541 74.7684 41.0914 75.5277 39.2601 75.5277V78.4979H71.0501V75.5277C69.3863 75.5277 68.0799 74.9694 67.1196 73.8528C66.6395 73.2499 66.2822 72.3231 66.0365 71.0836C65.7909 69.8442 65.6792 68.4819 65.6792 67.0191L65.5452 15.3311C65.5452 13.6562 65.6457 12.2158 65.8355 10.9986C66.0365 9.78154 66.4385 8.66493 67.0526 7.64882C67.6668 6.6327 68.4484 5.9739 69.4087 5.67241C69.9782 5.57192 70.57 5.43792 71.1841 5.29276V2.33372H39.5951V5.31508H39.5728ZM74.6568 5.31508C75.885 5.51607 76.823 5.76173 77.4706 6.04088C78.1294 6.32004 78.6319 6.74434 78.9781 7.29148C79.6369 8.3076 80.05 9.44654 80.2287 10.7083C80.4073 11.9813 80.4855 13.7009 80.4855 15.8783V67.2648C80.4855 68.5266 80.385 69.6209 80.1952 70.5365C79.9942 71.4521 79.6145 72.2784 79.045 73.0488C77.8614 74.7238 76.3987 75.5612 74.6568 75.5612V78.5314H106.447V75.5612C105.62 75.5612 104.872 75.3714 104.214 74.9917C103.555 74.6121 102.985 74.1431 102.505 73.5848C102.025 73.0265 101.668 72.122 101.422 70.8826C101.176 69.6432 101.065 68.2809 101.065 66.8182V15.6549C101.065 13.779 101.143 12.2492 101.299 11.0545C101.455 9.85969 101.835 8.78775 102.449 7.82746C102.885 7.11283 103.343 6.59919 103.823 6.26421C104.303 5.92923 105.218 5.61656 106.581 5.31508V2.35606H74.6568V5.31508ZM169.011 72.7474C168.597 71.9322 168.318 70.9831 168.195 69.9C168.061 68.8057 167.994 67.8566 167.994 67.0526V16.4254C167.994 15.0073 168.095 13.444 168.285 11.7468C168.486 10.0495 168.977 8.62025 169.759 7.44781C170.418 6.48752 171.132 5.87338 171.925 5.62773C172.45 5.52723 172.975 5.42675 173.499 5.32626V2.35606H153.702V5.32626C154.763 5.48258 155.656 5.75056 156.393 6.1302C157.119 6.50985 157.755 7.12401 158.28 7.96147C158.805 8.79893 159.14 9.56937 159.274 10.284C159.408 10.9986 159.475 12.0371 159.475 13.3994C159.475 13.6004 159.475 13.9018 159.475 14.315V31.5108L146.299 12.3386C145.863 11.6798 145.551 11.1438 145.383 10.7418C144.992 9.88203 144.791 9.08925 144.791 8.38578C144.791 7.88331 144.948 7.38081 145.249 6.90067C145.551 6.42053 145.874 6.04089 146.198 5.76173C146.522 5.48258 146.913 5.33742 147.348 5.33742V2.36722H109.852V5.33742C111.471 5.59424 112.733 6.29771 113.66 7.47015C114.096 8.02846 114.397 9.04457 114.576 10.5073C114.754 11.9813 114.832 13.5222 114.832 15.1413C114.832 15.8001 114.832 16.4366 114.832 17.0395V63.6358C114.832 66.2152 114.632 68.5377 114.241 70.5923C113.85 72.6469 113.191 73.998 112.275 74.6568C111.751 75.0141 111.338 75.2262 111.025 75.3044C110.723 75.3826 110.154 75.4719 109.316 75.5724V78.5314H128.388V75.5612C127.35 75.3603 126.512 75.0364 125.865 74.6121C125.217 74.1766 124.715 73.5625 124.346 72.7474C123.978 71.9322 123.721 71.0836 123.564 70.2015C123.408 69.3194 123.341 68.2363 123.341 66.9745L123.408 16.0569L153.501 57.0924C155.243 59.4708 156.426 61.3467 157.029 62.7202C157.945 64.6966 158.403 66.7958 158.403 69.029C158.403 72.3789 157.331 74.4558 155.187 75.2598C154.617 75.4607 154.048 75.5612 153.478 75.5612V78.5203H173.276V75.5612C172.36 75.4607 171.523 75.1704 170.753 74.6903C170.016 74.1989 169.424 73.5513 169.011 72.7474ZM289.594 33.3198L273.861 27.4575C271.114 26.4414 269.07 25.1238 267.764 23.5047C266.714 22.1871 266.189 20.6909 266.189 19.0159C266.189 17.8993 266.346 16.8385 266.647 15.8224C266.826 15.2083 267.105 14.5048 267.496 13.6897C268.11 12.3721 269.048 11.3895 270.31 10.7642C271.572 10.1277 273.068 9.81503 274.765 9.81503C276.73 9.81503 278.785 10.217 280.929 11.0321C283.073 11.8473 284.971 12.9081 286.635 14.2257C288.689 15.8447 290.587 18.5581 292.34 22.3658C293.077 23.9402 293.524 25.1015 293.647 25.8608L296.003 25.0233L293.77 0.29033C293.334 0.547151 292.72 0.949124 291.939 1.50743C290.889 2.12157 289.884 2.56823 288.924 2.88088C288.79 2.92554 288.555 2.95904 288.198 2.95904C285.228 2.30024 282.347 1.64144 279.544 0.982634C276.741 0.323832 274.207 0 271.94 0C270.198 0 268.534 0.178662 266.96 0.535978C260.495 2.05457 255.269 4.86844 251.294 8.97758C246.839 13.6004 244.605 19.2281 244.605 25.8719C244.605 30.6957 245.867 34.8048 248.402 38.1993C250.713 41.2924 253.951 43.6261 258.105 45.2005L275.413 51.822C276.987 52.425 278.238 53.4299 279.187 54.8257C280.125 56.2215 280.594 57.8517 280.594 59.7388C280.594 60.5539 280.549 61.1792 280.46 61.6371C279.935 64.6854 278.495 67.0415 276.138 68.7164C273.782 70.3913 270.935 71.2288 267.619 71.2288C264.604 71.2288 261.511 70.4695 258.34 68.9509C255.168 67.4323 252.433 65.2437 250.11 62.4075C248.491 60.4311 247.073 57.7401 245.845 54.3456C244.884 51.7104 244.337 49.6335 244.203 48.1037L241.847 48.4052L244.404 79.9049C244.884 79.5029 245.376 79.1009 245.878 78.7212C246.381 78.3416 246.816 78.1183 247.196 78.0401C247.564 77.962 248.033 77.9284 248.603 77.9284C252.757 78.5314 256.821 79.1456 260.796 79.7485C264.771 80.3515 268.356 80.6641 271.549 80.6641C275.524 80.6641 279.7 79.849 284.066 78.2299C289.393 76.2535 293.68 73.462 296.907 69.8553C300.838 65.4447 302.803 60.1408 302.803 53.9548C302.803 48.7848 301.631 44.4412 299.297 40.9462C296.997 37.4289 293.747 34.8942 289.594 33.3198Z" fill="#E92A2D"/>
</svg>
