<svg width="536" height="178" viewBox="0 0 536 178" fill="none" xmlns="http://www.w3.org/2000/svg">
<path d="M378.714 47.523C378.714 45.9151 378.814 44.5975 379.004 43.5591C379.205 42.5206 379.641 41.5603 380.344 40.6782C381.65 38.914 383.191 38.0318 384.978 38.0318V35.3855H353.713V38.2663C353.925 38.2663 354.282 38.2663 354.751 38.2663C356.013 38.2663 357.141 38.8358 358.146 39.9748C358.671 40.6001 359.028 41.2477 359.229 41.9177C359.43 42.5876 359.519 43.8047 359.519 45.569V64.1383C359.519 67.1978 358.95 69.632 357.822 71.4409C356.471 73.5625 354.383 74.6232 351.558 74.6232C345.204 74.6232 340.068 70.8379 336.16 63.2561C332.81 56.8133 331.135 49.6781 331.135 41.8395C331.135 41.2142 331.146 40.7006 331.168 40.2874C331.191 39.8743 331.224 39.4276 331.269 38.9586C331.872 31.3321 333.558 25.1014 336.294 20.2665C339.599 14.449 344.099 11.5458 349.805 11.5458C353.456 11.5458 357.61 12.8187 362.266 15.3758C364.131 16.4254 366.007 18.2678 367.883 20.9253C370.317 24.3645 371.902 27.3347 372.651 29.8471L374.281 28.8309L371.612 2.04339C370.83 2.76919 370.071 3.49498 369.323 4.22078C368.363 4.84608 367.123 5.15875 365.605 5.15875C364.254 5.15875 362.78 4.95774 361.172 4.53343C358.045 3.7518 355.254 3.1935 352.819 2.85851C350.385 2.52353 347.772 2.35604 344.992 2.35604C339.856 2.35604 335.143 3.12651 330.833 4.65627C326.523 6.18604 322.738 8.62024 319.477 11.9366C317.043 14.4713 315.067 17.3075 313.526 20.4452V59.8058C314.598 62.3182 315.86 64.6854 317.322 66.9186C321.32 72.993 326.222 77.2026 332.006 79.5363C336.662 81.4011 342.904 82.339 350.731 82.339H383.359V79.38C382.32 79.0674 381.516 78.7212 380.98 78.3304C380.433 77.9396 379.942 77.2808 379.518 76.3428C379.082 75.4161 378.814 74.5004 378.736 73.6183C378.736 72.6357 378.736 71.6531 378.736 70.6593V47.523H378.714ZM5.03912 100.149C5.4746 100.049 6.0329 100.004 6.6917 100.004C11.5713 100.785 16.3504 101.567 21.029 102.349C25.7076 103.13 29.9173 103.521 33.6691 103.521C38.3477 103.521 47.4928 102.483 52.6292 100.395C58.8934 97.86 63.3487 94.2756 67.1563 89.6529C71.7791 83.9916 74.2356 77.1915 74.2356 69.2412C74.2356 63.2115 72.8845 57.2264 69.5459 52.1458C68.1278 49.9796 66.2519 48.1819 64.1303 46.6968C60.278 44.0057 55.8562 42.3085 51.4344 40.7564C46.3873 38.981 41.3737 37.1274 36.349 35.2515C32.8205 33.9339 29.1915 33.2416 26.4446 30.4277C22.4136 26.2962 23.5191 19.5631 27.2039 15.5991C28.9235 13.7567 31.916 12.3274 34.3279 11.7579C43.0821 9.6922 49.3128 13.7678 57.3748 21.573C59.273 23.4154 61.2829 27.558 61.2829 27.558L65.7606 2.41188C65.2469 2.7357 63.103 4.14263 62.1762 4.85726C60.4566 6.18603 57.5646 4.46645 55.845 3.84115C53.5336 3.00369 51.1776 2.28906 48.788 1.70842C43.9866 0.558305 39.0512 0 34.1046 0C30.2299 0 25.9979 0.279154 22.2238 1.16128C19.4546 1.80891 16.4956 3.20467 14.0502 4.62277C6.0999 9.21205 2.29225 17.3522 0.58383 26.0394C-0.465787 31.3545 -0.164301 36.8594 2.01309 41.8618C5.11728 48.9746 10.6222 55.0267 17.8467 58.0081L42.4792 66.2151C44.2546 66.807 46.3203 68.5489 47.4034 70.0451C51.3116 75.4495 49.4245 84.4383 44.6007 88.6479C37.0524 95.2583 23.4632 92.824 16.0154 87.2186C11.9286 84.148 9.77356 79.5252 8.03164 74.8577C7.93114 74.5897 6.07757 69.4645 6.17806 69.4645C6.15573 69.4645 2.51557 69.4645 2.51557 69.4645L0.0255229 103.521C0.594996 102.996 2.90639 101.522 3.49819 101.031C4.09 100.54 4.60364 100.25 5.03912 100.149ZM513.12 57.6061C510.921 53.7872 508.353 49.6446 505.405 45.1893C505.851 45.1893 507.459 44.229 510.24 42.2973C513.913 39.7067 516.883 36.8817 519.161 33.8222C522.333 29.5009 523.918 24.8781 523.918 19.9539C523.918 19.4291 523.862 18.5581 523.751 17.3633C523.248 12.841 521.294 9.37955 517.866 6.98999C514.449 4.60044 509.48 3.39449 502.97 3.39449H444.572V7.29148C445.744 7.29148 446.738 7.53713 447.575 8.03961C448.413 8.54208 449.15 9.45771 449.786 10.7865C450.423 12.1152 450.858 14.5383 451.081 18.0668C451.137 19.1946 451.171 20.7913 451.171 22.8571L451.003 88.1901C451.003 90.4457 450.836 92.2769 450.501 93.6727C450.166 95.0684 449.44 96.2967 448.335 97.3687C447.497 98.1726 446.794 98.7198 446.213 99.0101C445.632 99.3116 444.862 99.4567 443.924 99.4567V103.354H483.72V99.4455C482.168 99.0436 481.185 98.7421 480.806 98.5523C479.968 98.0833 479.108 97.19 478.215 95.8612C477.545 94.8563 477.087 93.6838 476.842 92.3104C476.596 90.9481 476.462 89.195 476.462 87.0735V58.9125L480.884 56.4225C482.548 59.147 484.234 61.9162 485.931 64.7077C487.628 67.4993 489.035 70.0675 490.141 72.39C493.926 80.5078 496.226 85.6666 497.064 87.8663C498.281 91.1268 498.895 93.6615 498.895 95.4593C498.895 96.788 498.56 97.6925 497.89 98.1614C496.662 99.0324 495.299 99.5572 493.803 99.7582V103.354H535.844V99.9592C534.28 99.6242 532.974 99.1999 531.924 98.6639C530.484 97.9381 528.641 94.3091 526.419 87.7881C523.416 78.8775 521.272 73.127 519.999 70.5364C517.609 65.735 515.309 61.436 513.12 57.6061ZM490.799 38.847C487.572 42.1745 483.843 44.7092 479.622 46.4399L476.708 47.5342V22.4774C476.708 20.8137 476.92 19.3621 477.333 18.1338C477.746 16.9055 478.483 16.0234 479.544 15.4874C481.431 14.5606 483.463 14.0916 485.629 14.0916C488.801 14.0916 491.414 14.9626 493.468 16.6822C495.858 18.6809 497.052 21.4055 497.052 24.867C497.052 29.8582 494.976 34.5145 490.799 38.847ZM141.344 96.5312C140.473 97.1788 139.569 97.6701 138.642 97.994C137.704 98.3178 136.978 98.4964 136.453 98.5299C135.929 98.5634 135.348 98.5746 134.689 98.5746H95.5295C95.3955 98.5746 94.7702 98.5746 93.6424 98.5746C93.5531 98.5746 93.1957 98.5523 92.5704 98.4964C91.934 98.4406 91.4538 98.3401 91.0965 98.1838C90.2255 97.7148 89.5109 97.1677 88.9414 96.5312L84.2405 123.777L86.1946 124.246C86.5854 122.47 87.434 120.315 88.7405 117.803C89.8236 115.703 90.9179 114.107 92.001 113.012C94.1784 110.924 96.1994 109.439 98.0753 108.579C99.9401 107.72 102.184 107.284 104.797 107.284V163.282C104.797 165.527 104.708 167.202 104.541 168.296C104.362 169.39 103.826 170.462 102.91 171.512C101.392 173.231 99.7726 174.091 98.0753 174.091C97.6845 174.091 97.383 174.113 97.1597 174.169V177.151H132.925V174.091C131.529 174.091 130.379 173.901 129.463 173.499C128.548 173.109 127.71 172.338 126.951 171.188C126.192 170.038 125.689 168.731 125.455 167.269C125.22 165.806 125.097 164.153 125.097 162.333C125.097 161.92 125.097 161.395 125.097 160.77L125.03 107.284C128.168 107.284 130.915 107.976 133.282 109.361C135.649 110.746 137.86 112.912 139.904 115.837C141.735 118.45 143.019 121.331 143.756 124.469L145.71 123.754L141.344 96.5312Z" fill="#E92A2D"/>
</svg>
